<mxfile host="app.diagrams.net" modified="2020-08-17T07:27:32.838Z" agent="5.0 (Windows NT 10.0; Win64; x64) AppleWebKit/537.36 (KHTML, like Gecko) Chrome/84.0.4147.125 Safari/537.36" etag="_G2X3u3qb-LXU-kJ1mr0" version="13.6.2" type="github">
  <diagram id="uAj-lejeq4DFX5H2uq2S" name="第 1 页">
    <mxGraphModel dx="1761" dy="544" grid="1" gridSize="10" guides="1" tooltips="1" connect="1" arrows="1" fold="1" page="1" pageScale="1" pageWidth="827" pageHeight="1169" math="1" shadow="0">
      <root>
        <mxCell id="0" />
        <mxCell id="1" parent="0" />
        <mxCell id="4E8xfOPQsOfBrL4nCGdi-3" value="" style="edgeStyle=orthogonalEdgeStyle;orthogonalLoop=1;jettySize=auto;html=1;" edge="1" parent="1" source="4E8xfOPQsOfBrL4nCGdi-1" target="4E8xfOPQsOfBrL4nCGdi-2">
          <mxGeometry relative="1" as="geometry" />
        </mxCell>
        <mxCell id="4E8xfOPQsOfBrL4nCGdi-6" style="edgeStyle=orthogonalEdgeStyle;orthogonalLoop=1;jettySize=auto;html=1;dashed=1;" edge="1" parent="1" source="4E8xfOPQsOfBrL4nCGdi-1" target="4E8xfOPQsOfBrL4nCGdi-4">
          <mxGeometry relative="1" as="geometry">
            <Array as="points">
              <mxPoint x="580" y="305" />
              <mxPoint x="766" y="305" />
            </Array>
          </mxGeometry>
        </mxCell>
        <mxCell id="4E8xfOPQsOfBrL4nCGdi-1" value="AnnotatedGenericBeanDefinition" style="whiteSpace=wrap;html=1;rounded=1;" vertex="1" parent="1">
          <mxGeometry x="440" y="345" width="280" height="30" as="geometry" />
        </mxCell>
        <mxCell id="4E8xfOPQsOfBrL4nCGdi-8" value="" style="edgeStyle=orthogonalEdgeStyle;orthogonalLoop=1;jettySize=auto;html=1;" edge="1" parent="1" source="4E8xfOPQsOfBrL4nCGdi-2" target="4E8xfOPQsOfBrL4nCGdi-7">
          <mxGeometry relative="1" as="geometry" />
        </mxCell>
        <mxCell id="4E8xfOPQsOfBrL4nCGdi-2" value="GenericBeanDefinition" style="whiteSpace=wrap;html=1;rounded=1;" vertex="1" parent="1">
          <mxGeometry x="300" y="235" width="280" height="30" as="geometry" />
        </mxCell>
        <mxCell id="4E8xfOPQsOfBrL4nCGdi-11" style="edgeStyle=orthogonalEdgeStyle;orthogonalLoop=1;jettySize=auto;html=1;entryX=0.5;entryY=1;entryDx=0;entryDy=0;dashed=1;" edge="1" parent="1" source="4E8xfOPQsOfBrL4nCGdi-4" target="4E8xfOPQsOfBrL4nCGdi-9">
          <mxGeometry relative="1" as="geometry">
            <Array as="points">
              <mxPoint x="766" y="125" />
              <mxPoint x="596" y="125" />
            </Array>
          </mxGeometry>
        </mxCell>
        <mxCell id="4E8xfOPQsOfBrL4nCGdi-4" value="AnnotatedBeanDefinition" style="whiteSpace=wrap;html=1;rounded=1;" vertex="1" parent="1">
          <mxGeometry x="626" y="195" width="280" height="30" as="geometry" />
        </mxCell>
        <mxCell id="4E8xfOPQsOfBrL4nCGdi-10" value="" style="edgeStyle=orthogonalEdgeStyle;orthogonalLoop=1;jettySize=auto;html=1;" edge="1" parent="1" source="4E8xfOPQsOfBrL4nCGdi-7" target="4E8xfOPQsOfBrL4nCGdi-9">
          <mxGeometry relative="1" as="geometry" />
        </mxCell>
        <mxCell id="4E8xfOPQsOfBrL4nCGdi-7" value="AbstractBeanDefinition" style="whiteSpace=wrap;html=1;rounded=1;" vertex="1" parent="1">
          <mxGeometry x="300" y="165" width="280" height="30" as="geometry" />
        </mxCell>
        <mxCell id="4E8xfOPQsOfBrL4nCGdi-9" value="BeanDefinition" style="whiteSpace=wrap;html=1;rounded=1;" vertex="1" parent="1">
          <mxGeometry x="456" y="55" width="280" height="30" as="geometry" />
        </mxCell>
        <mxCell id="4E8xfOPQsOfBrL4nCGdi-12" value="" style="edgeStyle=orthogonalEdgeStyle;orthogonalLoop=1;jettySize=auto;html=1;" edge="1" source="4E8xfOPQsOfBrL4nCGdi-14" target="4E8xfOPQsOfBrL4nCGdi-16" parent="1">
          <mxGeometry relative="1" as="geometry" />
        </mxCell>
        <mxCell id="4E8xfOPQsOfBrL4nCGdi-13" style="edgeStyle=orthogonalEdgeStyle;orthogonalLoop=1;jettySize=auto;html=1;dashed=1;" edge="1" source="4E8xfOPQsOfBrL4nCGdi-14" target="4E8xfOPQsOfBrL4nCGdi-18" parent="1">
          <mxGeometry relative="1" as="geometry">
            <Array as="points">
              <mxPoint x="-60" y="310" />
              <mxPoint x="126" y="310" />
            </Array>
          </mxGeometry>
        </mxCell>
        <mxCell id="4E8xfOPQsOfBrL4nCGdi-14" value="ConfigurationClassBeanDefinition" style="whiteSpace=wrap;html=1;rounded=1;" vertex="1" parent="1">
          <mxGeometry x="-200" y="350" width="280" height="30" as="geometry" />
        </mxCell>
        <mxCell id="4E8xfOPQsOfBrL4nCGdi-15" value="" style="edgeStyle=orthogonalEdgeStyle;orthogonalLoop=1;jettySize=auto;html=1;" edge="1" source="4E8xfOPQsOfBrL4nCGdi-16" target="4E8xfOPQsOfBrL4nCGdi-20" parent="1">
          <mxGeometry relative="1" as="geometry" />
        </mxCell>
        <mxCell id="4E8xfOPQsOfBrL4nCGdi-16" value="RootBeanDefinition" style="whiteSpace=wrap;html=1;rounded=1;" vertex="1" parent="1">
          <mxGeometry x="-340" y="240" width="280" height="30" as="geometry" />
        </mxCell>
        <mxCell id="4E8xfOPQsOfBrL4nCGdi-17" style="edgeStyle=orthogonalEdgeStyle;orthogonalLoop=1;jettySize=auto;html=1;entryX=0.5;entryY=1;entryDx=0;entryDy=0;dashed=1;" edge="1" source="4E8xfOPQsOfBrL4nCGdi-18" target="4E8xfOPQsOfBrL4nCGdi-21" parent="1">
          <mxGeometry relative="1" as="geometry">
            <Array as="points">
              <mxPoint x="126" y="130" />
              <mxPoint x="-44" y="130" />
            </Array>
          </mxGeometry>
        </mxCell>
        <mxCell id="4E8xfOPQsOfBrL4nCGdi-18" value="AnnotatedBeanDefinition" style="whiteSpace=wrap;html=1;rounded=1;" vertex="1" parent="1">
          <mxGeometry x="-14" y="200" width="280" height="30" as="geometry" />
        </mxCell>
        <mxCell id="4E8xfOPQsOfBrL4nCGdi-19" value="" style="edgeStyle=orthogonalEdgeStyle;orthogonalLoop=1;jettySize=auto;html=1;" edge="1" source="4E8xfOPQsOfBrL4nCGdi-20" target="4E8xfOPQsOfBrL4nCGdi-21" parent="1">
          <mxGeometry relative="1" as="geometry" />
        </mxCell>
        <mxCell id="4E8xfOPQsOfBrL4nCGdi-20" value="AbstractBeanDefinition" style="whiteSpace=wrap;html=1;rounded=1;" vertex="1" parent="1">
          <mxGeometry x="-340" y="170" width="280" height="30" as="geometry" />
        </mxCell>
        <mxCell id="4E8xfOPQsOfBrL4nCGdi-21" value="BeanDefinition" style="whiteSpace=wrap;html=1;rounded=1;" vertex="1" parent="1">
          <mxGeometry x="-184" y="60" width="280" height="30" as="geometry" />
        </mxCell>
      </root>
    </mxGraphModel>
  </diagram>
</mxfile>
